<svg width="24" height="24" viewBox="0 0 24 24" fill="none" xmlns="http://www.w3.org/2000/svg">
<path fill-rule="evenodd" clip-rule="evenodd" d="M3 6.16873H6.28125L8.39375 2.99998H14.7312L16.8438 6.16873H20.125H22.125V8.16873V18.4446V20.4446H20.125H3H1V18.4446V8.16873V6.16873H3ZM7.94535 7.27813L9.46412 4.99998H13.6609L15.1796 7.27813L15.7734 8.16873H16.8438H20.125V18.4446H3V8.16873H6.28125H7.35162L7.94535 7.27813ZM9 12.725C9 11.22 10.22 9.99998 11.725 9.99998C13.23 9.99998 14.45 11.22 14.45 12.725C14.45 14.23 13.23 15.45 11.725 15.45C10.22 15.45 9 14.23 9 12.725ZM11.725 7.99998C9.11545 7.99998 7 10.1154 7 12.725C7 15.3345 9.11545 17.45 11.725 17.45C14.3345 17.45 16.45 15.3345 16.45 12.725C16.45 10.1154 14.3345 7.99998 11.725 7.99998Z" fill="#DA5E42"/>
</svg>
