<svg width="20" height="20" viewBox="0 0 20 20" fill="none" xmlns="http://www.w3.org/2000/svg">
<path d="M7.78501 15.6517L6.17584 15.22L6.83168 12.7708C5.84998 12.4088 4.93761 11.8811 4.13418 11.2108L2.34001 13.0058L1.16084 11.8267L2.95584 10.0325C1.94257 8.81896 1.26175 7.36313 0.980011 5.8075L2.62001 5.50833C3.25251 9.01 6.31584 11.6667 10 11.6667C13.6833 11.6667 16.7475 9.01 17.38 5.50833L19.02 5.80666C18.7386 7.36251 18.0581 8.81864 17.045 10.0325L18.8392 11.8267L17.66 13.0058L15.8658 11.2108C15.0624 11.8811 14.15 12.4088 13.1683 12.7708L13.8242 15.2208L12.215 15.6517L11.5583 13.2017C10.527 13.3784 9.47305 13.3784 8.44168 13.2017L7.78501 15.6517Z" fill="#444749"/>
</svg>
