<svg width="20" height="20" viewBox="0 0 20 20" fill="none" xmlns="http://www.w3.org/2000/svg">
<path fill-rule="evenodd" clip-rule="evenodd" d="M4.875 5.625C4.875 2.79454 7.16954 0.5 10 0.5C12.8305 0.5 15.125 2.79454 15.125 5.625V6.75H16.875H17.625V7.5V17.5V18.25H16.875H3.125H2.375V17.5V7.5V6.75H3.125H4.875V5.625ZM13.625 5.625V6.75H6.375V5.625C6.375 3.62297 7.99797 2 10 2C12.002 2 13.625 3.62297 13.625 5.625ZM3.875 8.25V16.75H16.125V8.25H3.875ZM8.46015 12.3045C8.60055 12.6434 8.84888 12.9266 9.16662 13.11V15H10.8333V13.11C11.151 12.9266 11.3993 12.6434 11.5397 12.3045C11.6802 11.9655 11.7048 11.5897 11.6098 11.2353C11.5149 10.8809 11.3056 10.5678 11.0146 10.3444C10.7235 10.1211 10.3668 10 9.99995 10C9.63306 10 9.27642 10.1211 8.98535 10.3444C8.69427 10.5678 8.48503 10.8809 8.39007 11.2353C8.29511 11.5897 8.31975 11.9655 8.46015 12.3045Z" fill="#444749"/>
</svg>
