<svg width="20" height="20" viewBox="0 0 20 20" fill="none" xmlns="http://www.w3.org/2000/svg">
<path fill-rule="evenodd" clip-rule="evenodd" d="M7.50015 6.08661C8.42947 5.25486 9.65485 4.75 10.9999 4.75C13.8994 4.75 16.2499 7.10051 16.2499 10C16.2499 12.8995 13.8994 15.25 10.9999 15.25C9.65484 15.25 8.42946 14.7451 7.50014 13.9134L6.49978 15.0311C7.69348 16.0995 9.27163 16.75 10.9999 16.75C14.7279 16.75 17.7499 13.7279 17.7499 10C17.7499 6.27208 14.7279 3.25 10.9999 3.25C9.27163 3.25 7.69349 3.90053 6.49979 4.9689L7.50015 6.08661ZM6.33333 13L6.33333 10.6667L11.3333 10.6667V9.33333L6.33333 9.33333L6.33333 7L3 10L6.33333 13Z" fill="#DB2424"/>
</svg>
